<?xml version="1.0" encoding="utf-8"?>
<!-- Generator: Adobe Illustrator 19.0.1, SVG Export Plug-In . SVG Version: 6.00 Build 0)  -->
<svg version="1.1" id="Layer_1" xmlns="http://www.w3.org/2000/svg" xmlns:xlink="http://www.w3.org/1999/xlink" x="0px" y="0px"
	 viewBox="18 -252 108.5 154.5" style="enable-background:new 18 -252 108.5 154.5;" xml:space="preserve">
<style type="text/css">
	.st0{fill:#FFFFFF;}
</style>
<path class="st0" d="M124.1-236.2h-16c-1.5,0-2.3,0.8-2.3,2.3v46.2c0,1.5-0.8,2.3-2.3,2.3H84.9c-1.5,0-2.3-0.8-2.3-2.3v-62
	c0-1.5-0.8-2.3-2.3-2.3h-0.2H64.4h-0.3c-1.5,0-2.3,0.8-2.3,2.3v62c0,1.5-0.8,2.3-2.3,2.3H40.9c-1.5,0-2.3-0.8-2.3-2.3v-46.2
	c0-1.5-0.8-2.3-2.3-2.3h-16c-1.5,0-2.3,0.8-2.3,2.3v118.3c0,1.5,0.8,2.3,2.3,2.3h16c1.5,0,2.3-0.8,2.3-2.3v-47.7
	c0-1.5,0.8-2.3,2.3-2.3h18.6c1.5,0,2.3,0.8,2.3,2.3v63.5c0,1.5,0.8,2.3,2.3,2.3h0.3h15.7h0.3c1.5,0,2.3-0.8,2.3-2.3v-63.5
	c0-1.5,0.8-2.3,2.3-2.3h18.6c1.5,0,2.3,0.8,2.3,2.3v47.7c0,1.5,0.8,2.3,2.3,2.3h16c1.5,0,2.3-0.8,2.3-2.3v-118.3
	C126.3-235.4,125.5-236.2,124.1-236.2z"/>
</svg>
