<?xml version="1.0" encoding="utf-8"?>
<!-- Generator: Adobe Illustrator 19.0.1, SVG Export Plug-In . SVG Version: 6.00 Build 0)  -->
<svg version="1.1" id="Layer_1" xmlns="http://www.w3.org/2000/svg" xmlns:xlink="http://www.w3.org/1999/xlink" x="0px" y="0px"
	 viewBox="0 0 23 21" style="enable-background:new 0 0 23 21;" xml:space="preserve">
<style type="text/css">
	.st0{fill:#FFFFFF;}
</style>
<polygon class="st0" points="16.2,9.3 11.9,9.3 13.8,3 6.8,11.7 11.1,11.7 9.3,18 "/>
<g>
	<path class="st0" d="M2.6,10.5c0.3,0.2,0.6,0.5,0.7,0.7c0.2,0.3,0.2,0.6,0.2,1.1v3.5c0,0.4,0.1,0.7,0.3,0.9
		c0.2,0.2,0.5,0.4,0.8,0.4c0.2,0,0.3,0.1,0.4,0.1c0.1,0.1,0.1,0.2,0.1,0.3c0,0.1,0,0.2-0.1,0.3c-0.1,0.1-0.2,0.1-0.4,0.1
		c-0.5,0-1-0.2-1.3-0.5c-0.5-0.5-0.7-1-0.7-1.7v-3.5c0-0.4-0.1-0.7-0.3-0.9c-0.2-0.2-0.5-0.4-0.8-0.4c-0.2,0-0.3-0.1-0.4-0.1
		C1.1,10.7,1,10.6,1,10.5c0-0.1,0-0.2,0.1-0.3c0.1-0.1,0.2-0.1,0.4-0.1c0.3,0,0.6-0.2,0.8-0.4c0.2-0.2,0.3-0.5,0.3-0.9V5.2
		c0-0.6,0.2-1.1,0.6-1.5c0.4-0.4,0.9-0.6,1.4-0.6c0.2,0,0.3,0,0.4,0.1s0.1,0.2,0.1,0.3s0,0.2-0.1,0.3C5,3.8,4.8,3.9,4.6,3.9
		C4.3,3.9,4,4.1,3.8,4.3C3.6,4.5,3.5,4.8,3.5,5.2v3.5c0,0.4-0.1,0.7-0.2,1C3.2,10,2.9,10.3,2.6,10.5z"/>
</g>
<g>
	<path class="st0" d="M19.3,9.7c-0.1-0.3-0.2-0.6-0.2-1V5.2c0-0.4-0.1-0.7-0.3-0.9c-0.2-0.2-0.5-0.4-0.8-0.4c-0.2,0-0.3-0.1-0.4-0.1
		c-0.1-0.1-0.1-0.2-0.1-0.3s0-0.2,0.1-0.3c0.1-0.1,0.2-0.1,0.4-0.1c0.6,0,1,0.2,1.4,0.6C19.8,4.1,20,4.6,20,5.2v3.5
		c0,0.4,0.1,0.7,0.3,0.9c0.2,0.2,0.5,0.4,0.8,0.4c0.2,0,0.3,0.1,0.4,0.1c0.1,0.1,0.1,0.2,0.1,0.3c0,0.1,0,0.2-0.1,0.3
		c-0.1,0.1-0.2,0.1-0.4,0.1c-0.3,0-0.6,0.2-0.8,0.4c-0.2,0.2-0.3,0.5-0.3,0.9v3.5c0,0.6-0.2,1.2-0.7,1.7c-0.3,0.3-0.8,0.5-1.3,0.5
		c-0.2,0-0.3,0-0.4-0.1c-0.1-0.1-0.1-0.2-0.1-0.3c0-0.1,0-0.2,0.1-0.3c0.1-0.1,0.2-0.1,0.4-0.1c0.3,0,0.6-0.2,0.8-0.4
		c0.2-0.2,0.3-0.5,0.3-0.9v-3.5c0-0.4,0.1-0.8,0.2-1.1c0.1-0.2,0.3-0.5,0.7-0.7C19.7,10.3,19.5,10,19.3,9.7z"/>
</g>
</svg>
