<?xml version="1.0" encoding="utf-8"?>
<!-- Generator: Adobe Illustrator 18.0.0, SVG Export Plug-In . SVG Version: 6.00 Build 0)  -->
<!DOCTYPE svg PUBLIC "-//W3C//DTD SVG 1.1//EN" "http://www.w3.org/Graphics/SVG/1.1/DTD/svg11.dtd">
<svg version="1.1" id="Layer_1" xmlns="http://www.w3.org/2000/svg" xmlns:xlink="http://www.w3.org/1999/xlink" x="0px" y="0px"
	 viewBox="0 0 75 50" enable-background="new 0 0 75 50" xml:space="preserve">
<g>
	<path fill="#010101" d="M67.4,0.2H7.8c-4.1,0-7.6,3.4-7.6,7.6v34.7c0,4.1,3.4,7.6,7.6,7.6h59.6c4.1,0,7.6-3.4,7.6-7.6V7.7
		C75,3.6,71.5,0.2,67.4,0.2z M72.9,42.4c0,3-2.5,5.5-5.5,5.5H7.8c-3,0-5.5-2.5-5.5-5.5V7.7c0-3,2.5-5.5,5.5-5.5h59.6
		c3,0,5.5,2.5,5.5,5.5V42.4z"/>
	<path fill="#010101" d="M64.9,26.7H44.3c-0.6,0-1,0.4-1,1s0.4,1,1,1h20.6c0.6,0,1-0.4,1-1S65.5,26.7,64.9,26.7z"/>
	<path fill="#010101" d="M64.9,11.5H39c-0.6,0-1,0.4-1,1s0.4,1,1,1h25.9c0.6,0,1-0.4,1-1S65.5,11.5,64.9,11.5z"/>
	<path fill="#010101" d="M64.9,31.9H44.3c-0.6,0-1,0.4-1,1s0.4,1,1,1h20.6c0.6,0,1-0.4,1-1S65.5,31.9,64.9,31.9z"/>
	<path fill="#010101" d="M64.9,37.1H44.3c-0.6,0-1,0.4-1,1s0.4,1,1,1h20.6c0.6,0,1-0.4,1-1S65.5,37.1,64.9,37.1z"/>
	<path fill="#010101" d="M26.5,25.8c-0.3,0-0.5,0.1-0.7,0.3l0,0c-0.1,0.1-1.3,1.2-3.6,1.2c-2.2,0-3.5-1.2-3.6-1.2l0,0
		c-0.2-0.2-0.4-0.3-0.7-0.3c-3,0-5.4,1-7.1,2.9c-3.5,4-2.6,10.8-2.5,11c0.1,0.5,0.5,0.9,1,0.9h25.9c0.5,0,0.9-0.4,1-0.9
		c0-0.3,0.9-6.9-2.5-11C32,26.9,29.5,25.8,26.5,25.8z M24.2,29.3l-2.1,4.1l-2.1-4.1c0.6,0.2,1.2,0.3,2.1,0.3
		C23,29.6,23.6,29.4,24.2,29.3z M34.2,38.6H10.3c-0.1-1.8-0.1-5.9,2.2-8.5c1.1-1.3,2.8-2.1,4.9-2.2l4,8.3c0.3,0.7,1.6,0.7,1.9,0
		l4-8.3c2.1,0.1,3.7,0.8,4.9,2.2C34.3,32.7,34.3,36.8,34.2,38.6z"/>
	<path fill="#010101" d="M22.3,24.9c4.2,0,7.8-3.5,7.8-7.8s-3.5-7.8-7.8-7.8s-7.8,3.5-7.8,7.8S17.9,24.9,22.3,24.9z M22.3,11.5
		c3.1,0,5.7,2.6,5.7,5.7s-2.6,5.7-5.7,5.7s-5.7-2.6-5.7-5.7S19.1,11.5,22.3,11.5z"/>
</g>
</svg>
