<?xml version="1.0" encoding="utf-8"?>
<!-- Generator: Adobe Illustrator 19.0.1, SVG Export Plug-In . SVG Version: 6.00 Build 0)  -->
<svg version="1.1" id="Layer_1" xmlns="http://www.w3.org/2000/svg" xmlns:xlink="http://www.w3.org/1999/xlink" x="0px" y="0px"
	 viewBox="-345 256.2 100 100.8" style="enable-background:new -345 256.2 100 100.8;" xml:space="preserve">
<path d="M-343,259v96h96v-96H-343z M-251,351h-88v-88h88V351z"/>
<path d="M-325,311c4.4,0,8-3.6,8-8c0-1.3-0.3-2.6-0.9-3.7c3.8-2.9,9.3-5.9,15.4-6.2c3.6-0.1,7.2,0.8,10.5,2.7
	c-0.4,1-0.7,2.1-0.7,3.2c0,4.4,3.6,8,8,8c1.2,0,2.4-0.3,3.4-0.8c3.8,5.9,4.9,12.1,3.1,18.4c-0.5,1.7-1.2,3.3-1.9,4.7
	c-0.9-0.3-1.8-0.5-2.8-0.5c-4.4,0-8,3.6-8,8c0,4.4,3.6,8,8,8s8-3.6,8-8c0-2-0.7-3.8-1.9-5.2c0.9-1.7,1.7-3.6,2.4-5.8
	c1.3-4.4,1.4-8.8,0.3-13.1v-0.1l5.7,5.7c-0.4,0.8-0.6,1.7-0.6,2.6c0,3.3,2.7,6,6,6s6-2.7,6-6s-2.7-6-6-6c-0.9,0-1.8,0.2-2.6,0.6
	l-12.3-12.3c0.8-1.2,1.2-2.7,1.2-4.2c0-4.4-3.6-8-8-8c-1.6,0-3,0.5-4.2,1.2l-12.6-12.6c0.4-0.8,0.6-1.7,0.6-2.6c0-3.3-2.7-6-6-6
	s-6,2.7-6,6s2.7,6,6,6c0.9,0,1.8-0.2,2.6-0.6l7.2,7.1c-1.8-0.4-3.6-0.5-5.5-0.4c-5.5,0.2-11.4,2.5-17,6.5c-0.3,0.2-0.6,0.5-0.9,0.7
	c-1.3-0.8-2.8-1.3-4.4-1.3c-4.4,0-8,3.6-8,8C-333,307.4-329.4,311-325,311z M-282.9,340.9c-2.2,0-4-1.8-4-4s1.8-4,4-4s4,1.8,4,4
	S-280.7,340.9-282.9,340.9z M-280.7,299c0,2.2-1.8,4-4,4s-4-1.8-4-4s1.8-4,4-4S-280.7,296.8-280.7,299z M-325,299c2.2,0,4,1.8,4,4
	s-1.8,4-4,4s-4-1.8-4-4S-327.2,299-325,299z"/>
</svg>
