<?xml version="1.0" encoding="utf-8"?>
<!-- Generator: Adobe Illustrator 18.0.0, SVG Export Plug-In . SVG Version: 6.00 Build 0)  -->
<!DOCTYPE svg PUBLIC "-//W3C//DTD SVG 1.1//EN" "http://www.w3.org/Graphics/SVG/1.1/DTD/svg11.dtd">
<svg version="1.1" id="Layer_1" xmlns="http://www.w3.org/2000/svg" xmlns:xlink="http://www.w3.org/1999/xlink" x="0px" y="0px"
	 viewBox="0 0 360 360" enable-background="new 0 0 360 360" xml:space="preserve">
<g>
	<path fill="none" stroke="#000000" stroke-width="8" stroke-miterlimit="10" d="M48.9,307L48.9,307c-19.2,0-35-15.8-35-35V53.3
		c0-19.2,15.8-35,35-35l0,0c19.2,0,35,15.8,35,35c0,0,0,164.2,0,218.7C83.9,291.5,68.2,307,48.9,307z"/>
	<path fill="none" stroke="#000000" stroke-width="8" stroke-miterlimit="10" d="M224.2,307L224.2,307c-19.2,0-35-15.8-35-35V53.3
		c0-19.2,15.8-35,35-35l0,0c19.2,0,35,15.8,35,35c0,0,0,164.2,0,218.7C258.9,291.5,243.4,307,224.2,307z"/>
	<path fill="none" stroke="#000000" stroke-width="8" stroke-miterlimit="10" d="M136.1,244.4H135c-18.7,0-33.9-15.3-33.9-33.9V52.3
		c0-18.7,15.3-33.9,33.9-33.9h1.1c19.2,0,35,15.8,35,35c0,0,0,101.3,0,156.1C171.1,228.6,155.3,244.4,136.1,244.4z"/>
	<path fill="none" stroke="#000000" stroke-width="8" stroke-miterlimit="10" d="M311.1,244.4H310c-18.7,0-33.9-15.3-33.9-33.9V52.3
		c0-18.7,15.3-33.9,33.9-33.9h1.1c19.2,0,35,15.8,35,35c0,0,0,101.3,0,156.1C345.8,228.6,330,244.4,311.1,244.4z"/>
</g>
</svg>
