<?xml version="1.0" encoding="utf-8"?>
<!-- Generator: Adobe Illustrator 18.0.0, SVG Export Plug-In . SVG Version: 6.00 Build 0)  -->
<!DOCTYPE svg PUBLIC "-//W3C//DTD SVG 1.1//EN" "http://www.w3.org/Graphics/SVG/1.1/DTD/svg11.dtd">
<svg version="1.1" id="Layer_1" xmlns="http://www.w3.org/2000/svg" xmlns:xlink="http://www.w3.org/1999/xlink" x="0px" y="0px"
	 viewBox="100.8 108 158.4 144" enable-background="new 100.8 108 158.4 144" xml:space="preserve">
<g>
	<path d="M216.5,151.9c5.4,0,9.8-4.4,9.8-9.8s-4.4-9.8-9.8-9.8s-9.8,4.4-9.8,9.8S211.1,151.9,216.5,151.9z M216.5,136.6
		c3,0,5.5,2.5,5.5,5.5s-2.5,5.5-5.5,5.5s-5.5-2.5-5.5-5.5S213.5,136.6,216.5,136.6z"/>
	<path d="M244.5,168.8v-45.6c0-1.2-1-2.2-2.2-2.2h-5.6l-1.2-7.5c-0.2-1.2-1.3-2-2.5-1.8l-57.4,9.3h-58.1c-1.2,0-2.2,1-2.2,2.2v7.6
		l-5.5,0.9c-0.6,0.1-1.1,0.4-1.4,0.9c-0.3,0.5-0.5,1-0.4,1.6l7.3,45v45.6c0,1.2,1,2.2,2.2,2.2h5.6l1.2,7.5c0.2,1.1,1.1,1.8,2.1,1.8
		c0.1,0,0.2,0,0.3,0l57.4-9.3h58.1c1.2,0,2.2-1,2.2-2.2v-7.6l5.5-0.9c0.6-0.1,1.1-0.4,1.4-0.9c0.3-0.5,0.5-1,0.4-1.6L244.5,168.8z
		 M231.7,116.3l0.8,4.7h-29.7L231.7,116.3z M175.9,125.3H235h5.3V169v16.6l-30-23c0,0,0,0,0,0c-0.2-0.1-0.3-0.2-0.5-0.3
		c-0.1,0-0.2-0.1-0.2-0.1c-0.1,0-0.3,0-0.4,0c-0.1,0-0.3,0-0.4,0c-0.1,0-0.2,0.1-0.3,0.1c-0.2,0.1-0.4,0.1-0.5,0.2c0,0,0,0,0,0
		l-28.5,17.2c-0.2,0.1-0.4,0.3-0.5,0.5l-25-32.6c-0.1-0.1-0.2-0.1-0.2-0.2c-0.1-0.1-0.2-0.2-0.3-0.3c-0.1-0.1-0.2-0.1-0.4-0.2
		c-0.1-0.1-0.3-0.1-0.4-0.1s-0.3,0-0.4,0c-0.1,0-0.3,0-0.4,0c-0.1,0-0.3,0.1-0.4,0.1c-0.1,0-0.2,0.1-0.3,0.1l-31.1,19.3v-33.6
		c0,0,0,0,0,0v-7.3H175.9z M112.8,135.6l2.7-0.4v17L112.8,135.6z M128.3,231.7l-0.8-4.7h29.7L128.3,231.7z M240.2,222.7h-56.1H125
		h-5.3V179c0,0,0,0,0,0v-7.7l31.7-19.7l37.8,49.4c0.4,0.6,1.1,0.8,1.7,0.8c0.5,0,0.9-0.1,1.3-0.4c0.9-0.7,1.1-2.1,0.4-3l-11.5-15
		c0.1,0,0.1,0,0.2-0.1l27.3-16.4l31.5,24.1v24.3L240.2,222.7L240.2,222.7z M244.5,212.8v-17l2.7,16.6L244.5,212.8z"/>
</g>
</svg>
