<?xml version="1.0" encoding="utf-8"?>
<!-- Generator: Adobe Illustrator 18.0.0, SVG Export Plug-In . SVG Version: 6.00 Build 0)  -->
<!DOCTYPE svg PUBLIC "-//W3C//DTD SVG 1.1//EN" "http://www.w3.org/Graphics/SVG/1.1/DTD/svg11.dtd">
<svg version="1.1" id="Layer_1" xmlns="http://www.w3.org/2000/svg" xmlns:xlink="http://www.w3.org/1999/xlink" x="0px" y="0px"
	 viewBox="0 36 360 288" enable-background="new 0 36 360 288" xml:space="preserve">
<path d="M0,40.4v81v189h360v-189v-81L0,40.4L0,40.4z M352.8,303.2H7.2V121.4h345.6L352.8,303.2L352.8,303.2z M352.8,114.2H7.2V47.6
	h345.6L352.8,114.2L352.8,114.2z"/>
<rect x="90" y="167.3" width="45" height="7.2"/>
<rect x="90" y="203.3" width="45" height="7.2"/>
<rect x="90" y="239.3" width="45" height="7.2"/>
<rect x="72" y="239.3" width="7.2" height="7.2"/>
<rect x="72" y="203.3" width="7.2" height="7.2"/>
<rect x="72" y="167.3" width="7.2" height="7.2"/>
<rect x="63" y="87.2" width="144" height="7.2"/>
<rect x="63" y="69.2" width="234" height="7.2"/>
<path d="M243,184.4c6.2,0,11.4-4.2,13-9.9h32v-7.2h-32c-1.6-5.7-6.8-9.9-13-9.9s-11.4,4.2-13,9.9h-77v7.2h77
	C231.6,180.3,236.8,184.4,243,184.4z M243,164.6c3.5,0,6.3,2.8,6.3,6.3s-2.8,6.3-6.3,6.3s-6.3-2.8-6.3-6.3S239.5,164.6,243,164.6z"
	/>
<path d="M198,220.4c6.2,0,11.4-4.2,13-9.9h77v-7.2h-77c-1.6-5.7-6.8-9.9-13-9.9s-11.4,4.2-13,9.9h-32v7.2h32
	C186.6,216.3,191.8,220.4,198,220.4z M198,200.6c3.5,0,6.3,2.8,6.3,6.3s-2.8,6.3-6.3,6.3s-6.3-2.8-6.3-6.3S194.5,200.6,198,200.6z"
	/>
<path d="M252,256.4c6.2,0,11.4-4.2,13-9.9h23v-7.2h-23c-1.6-5.7-6.8-9.9-13-9.9c-6.2,0-11.4,4.2-13,9.9h-86v7.2h86
	C240.6,252.3,245.8,256.4,252,256.4z M252,236.6c3.5,0,6.3,2.8,6.3,6.3s-2.8,6.3-6.3,6.3s-6.3-2.8-6.3-6.3S248.5,236.6,252,236.6z"
	/>
</svg>
