<?xml version="1.0" encoding="UTF-8" standalone="no"?>
<svg width="1440px" height="151px" viewBox="0 0 1440 151" version="1.1" xmlns="http://www.w3.org/2000/svg" xmlns:xlink="http://www.w3.org/1999/xlink">
    <!-- Generator: Sketch 39.1 (31720) - http://www.bohemiancoding.com/sketch -->
    <title>waves background copy</title>
    <desc>Created with Sketch.</desc>
    <defs>
        <rect id="path-1" x="0" y="0" width="1440" height="157"></rect>
    </defs>
    <g id="Page-1" stroke="none" stroke-width="1" fill="none" fill-rule="evenodd">
        <g id="Landing-Web-Copy" transform="translate(0.000000, -6.000000)">
            <g id="waves-background-copy" transform="translate(720.000000, 78.500000) scale(-1, 1) translate(-720.000000, -78.500000) ">
                <mask id="mask-2" fill="white">
                    <use xlink:href="#path-1"></use>
                </mask>
                <g id="Rectangle"></g>
                <path d="M-146.128639,135.029564 C7.87135315,118.324339 77,110.32434 380,110.32434 C683,110.32434 749,155.999999 1040,155.999999 C1331,155.999999 1487.87136,100.32434 1487.87136,100.32434 L1469,255.999999 L-25.3298427,266.32434 C-25.3298427,266.32434 -300.128631,151.734789 -146.128639,135.029564 Z" id="Path-3-Copy" fill="#FFFFFF" mask="url(#mask-2)"></path>
                <path d="M-136.132369,87.2904599 C-105.00373,74.3583512 271.004263,28 437.037766,28 C603.07127,28 737.867594,63.8090896 1028.86759,63.8090896 C1319.86759,63.8090896 1516.73899,34.0607412 1516.73899,34.0607412 L1436.73901,167 L-0.261001578,199 C-0.261001578,199 -167.261007,100.222569 -136.132369,87.2904599 Z" id="Path-3-Copy-5" fill="#FFFFFF" opacity="0.100000001" mask="url(#mask-2)" transform="translate(688.369496, 113.500000) scale(-1, 1) translate(-688.369496, -113.500000) "></path>
                <path d="M-166.000001,21 C-12.000009,11.1934607 419.331177,41.8243708 534.331177,57.6742956 C649.331177,73.5242204 756.999952,113.000003 1047.99995,113.000003 C1338.99995,113.000003 1505.20256,70.7794492 1505.20256,70.7794492 L1435.45035,168.227136 L-7.99864627,168.227136 C-7.99864627,168.227136 -319.999993,30.8065393 -166.000001,21 Z" id="Path-3-Copy-2" fill="#FFFFFF" opacity="0.200000018" mask="url(#mask-2)"></path>
                <path d="M912.991178,66.4593918 C797.063995,82.3093166 700.419678,99.9377008 407.073503,99.9377008 C113.727328,99.9377008 -65.7078119,79.5645454 -65.7078119,79.5645454 L4.60677034,177.012232 L1459.69351,177.012232 C1459.69351,177.012232 1758.75555,11.6921642 1603.51394,1.88562492 C1448.27233,-7.92091441 1028.91836,50.609467 912.991178,66.4593918 Z" id="Path-3-Copy-4" fill="#FFFFFF" opacity="0.25" mask="url(#mask-2)"></path>
            </g>
        </g>
    </g>
</svg>